<?xml version="1.0" encoding="UTF-8" standalone="no"?>
<!-- Created with Inkscape (http://www.inkscape.org/) -->

<svg
   width="210mm"
   height="297mm"
   viewBox="0 0 210 297"
   version="1.1"
   id="svg1"
   xml:space="preserve"
   inkscape:export-filename="bitmap.svg"
   inkscape:export-xdpi="96"
   inkscape:export-ydpi="96"
   xmlns:inkscape="http://www.inkscape.org/namespaces/inkscape"
   xmlns:sodipodi="http://sodipodi.sourceforge.net/DTD/sodipodi-0.dtd"
   xmlns="http://www.w3.org/2000/svg"
   xmlns:svg="http://www.w3.org/2000/svg"><sodipodi:namedview
     id="namedview1"
     pagecolor="#ffffff"
     bordercolor="#000000"
     borderopacity="0.25"
     inkscape:showpageshadow="2"
     inkscape:pageopacity="0.0"
     inkscape:pagecheckerboard="0"
     inkscape:deskcolor="#d1d1d1"
     inkscape:document-units="mm"><inkscape:page
       x="0"
       y="0"
       width="210"
       height="297"
       id="page2"
       margin="0"
       bleed="0" /></sodipodi:namedview><defs
     id="defs1" /><g
     inkscape:label="Layer 1"
     inkscape:groupmode="layer"
     id="layer1"><path
       style="fill:#000000"
       d="m 17.721545,228.32836 c -0.56765,-0.16498 -1.40373,-0.69555 -1.85796,-1.17906 -1.12181,-1.19411 -1.26557,-3.43723 -1.30856,-20.41858 -0.019,-7.52501 -0.18809,-15.96215 -0.37564,-18.74919 -0.44454,-6.60609 -2.15686,-18.76317 -2.63919,-18.73762 -0.12027,0.006 -0.75003,1.17577 -1.39945,2.59866 -1.7195997,3.76764 -4.0982297,6.9708 -6.4766597,8.7217 -2.32978,1.71509 -2.75769004,1.8426 -2.31998,0.69135 1.13234,-2.97829 2.01531,-11.17864 2.71323,-25.19841 1.43677,-28.86187 3.33985,-40.74819 8.2121597,-51.2916 5.65836,-12.244383 14.62413,-23.190514 24.80048,-30.278409 10.27465,-7.156361 19.08435,-10.808948 32.627432,-13.527647 7.269348,-1.459282 12.249124,-1.829506 21.696831,-1.613066 l 8.454162,0.19368 2.0889,-2.875101 c 4.2999,-5.918267 9.60406,-9.606286 16.47424,-11.454662 3.67564,-0.988904 12.11635,-1.070287 16.38444,-0.157973 5.50271,1.176215 10.52324,3.365896 14.23032,6.206483 l 2.15412,1.650612 5.57408,0.212552 c 15.31417,0.58396 23.60156,3.100432 31.81679,9.661187 10.90367,8.707762 16.76446,22.787231 19.20964,46.147584 0.57921,5.53361 0.81121,32.52963 0.34547,40.19999 -0.83392,13.7339 -2.39599,24.82239 -6.47239,45.94498 -2.27766,11.8021 -2.98666,14.68189 -4.20808,17.09225 -2.31354,4.56553 -6.93641,7.44271 -12.00401,7.47102 -6.69031,0.0374 -11.10546,-4.38103 -12.09144,-12.10036 -0.1873,-1.46632 -0.43436,-13.23146 -0.54903,-26.14476 -0.11468,-12.9133 -0.34686,-24.65242 -0.51597,-26.08693 -0.36806,-3.12216 -1.38793,-5.28233 -3.42535,-7.25516 -2.8797,-2.78841 -6.09376,-3.48449 -9.23413,-1.99989 -2.29129,1.08321 -3.31975,2.30383 -4.32994,5.13893 -1.35684,3.80798 -1.69399,7.16203 -1.48652,14.78811 0.13928,5.1194 0.43872,8.47062 1.21133,13.55691 6.52062,42.92691 6.62041,43.664 6.14572,45.39163 -0.50027,1.82071 -1.55835,2.91864 -3.27101,3.39418 -0.8762,0.24328 -8.91687,0.36418 -24.28198,0.36509 -21.20503,0.001 -23.0611,-0.0441 -24.13036,-0.58931 -0.63711,-0.32487 -1.46387,-1.00735 -1.83726,-1.51663 -0.65697,-0.89607 -0.68234,-1.51784 -0.78566,-19.25594 -0.0587,-10.08148 -0.26876,-20.1347 -0.46674,-22.34049 -0.7754,-8.63905 -2.94097,-11.67768 -8.363138,-11.73475 -1.053385,-0.0111 -5.183688,0.44814 -9.17845,1.0205 l -7.263204,1.04066 -1.462049,1.58307 c -2.150412,2.32842 -3.992871,6.43308 -5.431791,12.10105 -2.08696,8.22061 -1.905966,19.35058 0.496239,30.51559 1.267684,5.89196 1.0526,7.35207 -1.25654,8.53011 -1.223661,0.62426 -2.280607,0.64741 -28.226142,0.61808 -14.82518,-0.0168 -27.41932,-0.16545 -27.98696,-0.33042 z m 120.745025,-13.1691 c -0.87795,-12.69018 2.36285,-46.6707 5.66614,-59.41088 1.69554,-6.53937 4.93095,-12.31799 9.05866,-16.17926 2.67927,-2.50633 4.20396,-3.33067 7.40114,-4.0015 5.43805,-1.14102 10.74322,0.72953 14.71837,5.18955 4.72897,5.30579 5.73975,11.38517 5.77348,34.72489 0.0202,13.99893 0.50233,28.48556 1.02815,30.8951 0.53092,2.4329 1.7859,3.7318 3.60562,3.7318 2.43659,0 3.73833,-2.13737 5.45232,-8.95232 3.95319,-15.71814 6.91038,-33.76966 7.80229,-47.62734 0.76697,-11.91639 0.2742,-41.18024 -0.83567,-49.62723 -1.49079,-11.346183 -4.46069,-20.663453 -8.57193,-26.892134 -6.41429,-9.717886 -18.83673,-15.391632 -32.64172,-14.908568 -1.55822,0.05452 -1.74994,0.156575 -2.47393,1.316857 -0.43164,0.691763 -1.23787,1.789823 -1.79162,2.440133 -0.84708,0.994805 -1.05509,1.097719 -1.31118,0.64871 -0.79848,-1.399985 -3.72643,-4.60497 -5.72005,-6.261258 -2.6758,-2.223039 -7.75082,-4.893016 -11.18522,-5.88457 -3.55674,-1.026872 -10.15915,-1.28264 -13.15838,-0.509736 -8.11227,2.090541 -14.18356,8.480908 -17.34503,18.256587 -1.26907,3.924132 -1.65748,6.576615 -1.63461,11.162836 0.037,7.42318 2.16689,15.05615 5.67049,20.321743 7.30733,10.98222 20.79323,22.46372 29.2103,24.86876 1.56643,0.44758 3.39035,0.89687 4.05315,0.99841 1.40999,0.21602 1.32622,0.31522 3.92793,-4.65129 l 1.76969,-3.37824 0.0113,5.97974 c 0.0116,6.09808 -0.3039,8.69435 -1.20265,9.89796 -0.69191,0.92662 -2.65659,0.80565 -7.56943,-0.46604 -15.45552,-4.00068 -27.93091,-13.1064 -37.48892,-27.36297 -3.172863,-4.73258 -5.706041,-11.454953 -6.95354,-18.452793 -1.070061,-6.00251 -0.632924,-15.158932 0.978248,-20.490703 l 0.475239,-1.572588 -1.055211,-0.191349 C 93.54963,68.666326 90.642456,68.479149 87.66961,68.355619 77.568105,67.935875 67.404971,69.93358 55.480468,74.682842 c -8.061743,3.210811 -13.737623,6.471676 -18.959073,10.892225 -12.78969,10.82791 -19.96362,28.334563 -19.96362,48.717543 0,6.54393 1.34431,19.15875 3.54339,33.2506 2.88026,18.45697 3.21931,22.07496 3.52985,37.66731 0.16575,8.3223 0.40151,13.5173 0.6401,14.10413 l 0.3777,0.92901 h 11.12096 11.12096 l -0.29317,-1.26684 c -0.70784,-3.05879 -1.07955,-11.74128 -0.68993,-16.11576 1.14148,-12.81621 4.91678,-22.17784 11.83915,-29.35765 6.784235,-7.03654 14.792785,-10.4355 26.746205,-11.35154 7.288235,-0.55853 13.84818,0.53578 19.56106,3.26311 2.93631,1.40179 6.6826,4.93656 8.16675,7.70562 1.38601,2.58597 2.56276,6.43512 2.99406,9.79357 0.21475,1.67223 0.50916,10.41341 0.65423,19.42485 0.14508,9.01144 0.37562,16.72443 0.51231,17.13997 l 0.24853,0.75554 11.02551,0.089 c 6.06403,0.049 11.05852,0.0813 11.09886,0.072 0.0403,-0.009 -0.0891,-2.36569 -0.28773,-5.23626 z m 33.59349,-109.47293 c -1.60832,-0.46522 -3.35266,-2.28477 -3.80665,-3.97076 -1.02284,-3.798513 1.60663,-7.238743 5.53276,-7.238743 5.08138,0 7.70327,5.868413 4.32278,9.675383 -0.76009,0.85598 -3.06052,1.89831 -4.12545,1.86925 -0.46451,-0.0127 -1.33006,-0.16348 -1.92344,-0.33513 z"
       id="path1" /></g></svg>
